<?xml version="1.0" encoding="UTF-8"?>
<svg version="1.1" xmlns="http://www.w3.org/2000/svg" width="736" height="552">
<path d="M0 0 C242.88 0 485.76 0 736 0 C736 182.16 736 364.32 736 552 C493.12 552 250.24 552 0 552 C0 369.84 0 187.68 0 0 Z " fill="#17191F" transform="translate(0,0)"/>
<path d="M0 0 C15.84 0 31.68 0 48 0 C55 17.5 55 17.5 55 23 C86.68 23 118.36 23 151 23 C151 31.58 151 40.16 151 49 C145.72 49 140.44 49 135 49 C135 45.7 135 42.4 135 39 C110.58 39 86.16 39 61 39 C68.97531335 62.98684674 68.97531335 62.98684674 77.07421875 86.9296875 C78 90 78 90 78 93 C96.48 93 114.96 93 134 93 C134 88.05 134 83.1 134 78 C130.55240234 78.01740234 130.55240234 78.01740234 127.03515625 78.03515625 C124.81779112 78.04294709 122.60042749 78.04902369 120.38305664 78.05493164 C118.83780234 78.0599714 117.29255284 78.0668032 115.74731445 78.07543945 C113.53074971 78.08752076 111.31424782 78.09323173 109.09765625 78.09765625 C108.05545677 78.10539818 108.05545677 78.10539818 106.99220276 78.11329651 C105.3277067 78.11349277 103.66334501 78.06189129 102 78 C101.67 77.67 101.34 77.34 101 77 C101 71.72 101 66.44 101 61 C117.5 61 134 61 151 61 C151 76.84 151 92.68 151 109 C123.28 109 95.56 109 67 109 C64.3721218 102.43030449 61.91029501 95.97533728 59.75 89.26171875 C59.45485001 88.35393173 59.15970001 87.44614471 58.85560608 86.510849 C57.90053442 83.57076072 56.95022009 80.62915945 56 77.6875 C55.33811492 75.64687349 54.67592078 73.60634719 54.01342773 71.56591797 C52.66574093 67.41321131 51.3200105 63.25987897 49.97607422 59.10595703 C47.84422175 52.51679649 45.70616032 45.92965942 43.56724548 39.3427887 C41.04136248 31.56297743 38.5211579 23.78135155 36 16 C24.12 15.67 12.24 15.34 0 15 C0 10.05 0 5.1 0 0 Z " fill="#F8F8F8" transform="translate(308,187)"/>
<path d="M0 0 C24.42 0 48.84 0 74 0 C74 3.3 74 6.6 74 10 C73.67 10 73.34 10 73 10 C72.505 7.03 72.505 7.03 72 4 C71.34 4.33 70.68 4.66 70 5 C70 8.96 70 12.92 70 17 C69.030625 17.28875 68.06125 17.5775 67.0625 17.875 C63.89335797 18.64214682 63.89335797 18.64214682 63 21 C55.41 21 47.82 21 40 21 C40.495 29.415 40.495 29.415 41 38 C56.84 38.495 56.84 38.495 73 39 C73 43.95 73 48.9 73 54 C54.52 54 36.04 54 17 54 C6.96690174 24.03814492 6.96690174 24.03814492 2.875 11.25 C2.58036865 10.33524902 2.2857373 9.42049805 1.98217773 8.47802734 C1.71735596 7.64480957 1.45253418 6.8115918 1.1796875 5.953125 C0.83526611 4.87272949 0.83526611 4.87272949 0.48388672 3.77050781 C0 2 0 2 0 0 Z " fill="#22262E" transform="translate(369,226)"/>
<path d="M0 0 C0 9.9 0 19.8 0 30 C1.65 30 3.3 30 5 30 C4.94779297 28.42798828 4.94779297 28.42798828 4.89453125 26.82421875 C4.86639063 25.44532853 4.83909076 24.06642098 4.8125 22.6875 C4.78736328 21.99720703 4.76222656 21.30691406 4.73632812 20.59570312 C4.66233116 15.48991259 4.66233116 15.48991259 6.3515625 13.0390625 C8.68085396 11.57083613 10.30440639 11.65441108 13 12 C15 14 15 14 15.1953125 17.9140625 C15.18200376 19.48449351 15.15813602 21.05486221 15.125 22.625 C15.11597656 23.42679687 15.10695313 24.22859375 15.09765625 25.0546875 C15.07406223 27.03658523 15.03819065 29.01832981 15 31 C16.98 31 18.96 31 21 31 C19.68 31.33 18.36 31.66 17 32 C17 32.66 17 33.32 17 34 C15.35 33.67 13.7 33.34 12 33 C11.67 33.99 11.34 34.98 11 36 C8.69 35.34 6.38 34.68 4 34 C4 33.34 4 32.68 4 32 C3.34 32 2.68 32 2 32 C2.33 33.32 2.66 34.64 3 36 C2.39671875 35.9278125 1.7934375 35.855625 1.171875 35.78125 C-0.02695312 35.64203125 -0.02695312 35.64203125 -1.25 35.5 C-2.43335938 35.36078125 -2.43335938 35.36078125 -3.640625 35.21875 C-6.26890397 34.93845381 -6.26890397 34.93845381 -10 35 C-10.66 34.67 -11.32 34.34 -12 34 C-11.505 33.505 -11.505 33.505 -11 33 C-14.96 32.505 -14.96 32.505 -19 32 C-19 31.67 -19 31.34 -19 31 C-18.09507812 30.96132813 -18.09507812 30.96132813 -17.171875 30.921875 C-11.9965466 30.5596839 -11.9965466 30.5596839 -7.4375 28.25 C-5.85999955 26.06618087 -5.85999955 26.06618087 -5.4375 23.4375 C-5.76906501 20.81882731 -5.76906501 20.81882731 -8.125 19.375 C-9.07375 18.92125 -10.0225 18.4675 -11 18 C-12.093125 17.443125 -13.18625 16.88625 -14.3125 16.3125 C-15.199375 15.879375 -16.08625 15.44625 -17 15 C-16.67 13.68 -16.34 12.36 -16 11 C-12.37471432 10.79859524 -10.13498292 11.14223235 -7 13 C-6.67 11.68 -6.34 10.36 -6 9 C-10.29 8.34 -14.58 7.68 -19 7 C-18.67 6.34 -18.34 5.68 -18 5 C-17.21625 5.020625 -16.4325 5.04125 -15.625 5.0625 C-13.01885039 5.18684063 -13.01885039 5.18684063 -11 4 C-11 4.66 -11 5.32 -11 6 C-7.51190809 5.22969878 -7.51190809 5.22969878 -4 4 C-3.67 3.01 -3.34 2.02 -3 1 C-1 0 -1 0 0 0 Z " fill="#121316" transform="translate(395,324)"/>
<path d="M0 0 C3.9672797 0.26448531 5.67929288 0.7934343 8.75 3.25 C11.32167591 7.46718882 11.30942765 11.43892217 10.75 16.25 C9.15710448 19.91365969 7.30551347 22.373479 3.75 24.25 C-0.63939738 24.63503486 -2.53986601 24.72342266 -6.25 22.25 C-6.58 24.89 -6.91 27.53 -7.25 30.25 C-8.9 30.25 -10.55 30.25 -12.25 30.25 C-12.25 20.68 -12.25 11.11 -12.25 1.25 C-9.58333333 1.25 -6.91666667 1.25 -4.25 1.25 C-3.25 0.25 -3.25 0.25 0 0 Z " fill="#F3F4F5" transform="translate(463.25,330.75)"/>
<path d="M0 0 C3.06765423 1.72196807 5.40321354 3.80642707 7 7 C7.43032996 11.21226823 7.42629046 14.91059104 5.875 18.875 C2.56215197 22.6295611 -0.62915982 23.85570103 -5.5625 24.375 C-9.33638332 23.96330364 -11.09400598 23.42166168 -14 21 C-16.88868756 16.6171637 -17.56796579 13.20635305 -17 8 C-13.79872021 0.58650996 -7.60903915 -1.47099175 0 0 Z " fill="#F1F2F3" transform="translate(343,331)"/>
<path d="M0 0 C3.75212276 2.01502889 5.63644095 3.45466142 8 7 C8.60362041 11.18614674 8.41698873 14.93436214 6.875 18.875 C3.56215197 22.6295611 0.37084018 23.85570103 -4.5625 24.375 C-9.3541053 23.85227942 -11.75147536 22.50684008 -14.8125 18.8125 C-16.38648044 15.08465159 -16.59076626 11.98969543 -16 8 C-13.04249456 0.99538184 -7.37121554 -1.3271073 0 0 Z " fill="#ECEDEE" transform="translate(437,331)"/>
<path d="M0 0 C1.1034375 -0.00773437 2.206875 -0.01546875 3.34375 -0.0234375 C6.77859984 0.41016978 8.69542914 1.39714966 11.5 3.375 C10.51 4.695 9.52 6.015 8.5 7.375 C7.51 7.045 6.52 6.715 5.5 6.375 C-1.80032778 5.52434204 -1.80032778 5.52434204 -8.1875 8.4375 C-9.81769639 12.08603477 -9.99524928 14.41300573 -9.5 18.375 C-8.09539303 21.24805972 -6.75489001 23.12010999 -4.5 25.375 C-0.32016197 25.57725023 3.49047425 25.71150858 7.5 24.375 C7.5 22.395 7.5 20.415 7.5 18.375 C4.86 18.375 2.22 18.375 -0.5 18.375 C-0.5 16.725 -0.5 15.075 -0.5 13.375 C3.79 13.375 8.08 13.375 12.5 13.375 C12.5 17.995 12.5 22.615 12.5 27.375 C6.42130308 30.46259209 1.37796503 32.64677467 -5.5 31.375 C-10.32626694 29.00739735 -13.23430831 26.25495132 -15.5 21.375 C-16.26084816 15.72298506 -16.27336184 11.00765277 -13.8125 5.8125 C-9.54599953 1.31537788 -6.19448032 -0.04341925 0 0 Z " fill="#ECEDEE" transform="translate(308.5,323.625)"/>
<path d="M0 0 C1.65 0 3.3 0 5 0 C5 3.63 5 7.26 5 11 C6.32 10.01 7.64 9.02 9 8 C13.22526782 7.38541559 15.18863503 7.42430607 18.703125 9.91796875 C21.92419609 14.24012026 21.56617064 17.57907958 21.3125 22.8125 C21.28994141 23.69615234 21.26738281 24.57980469 21.24414062 25.49023438 C21.18547428 27.6608891 21.09579979 29.8306669 21 32 C19.02 32 17.04 32 15 32 C14.93941406 30.78441406 14.87882812 29.56882812 14.81640625 28.31640625 C14.73201668 26.73175772 14.6473679 25.14712298 14.5625 23.5625 C14.52318359 22.76005859 14.48386719 21.95761719 14.44335938 21.13085938 C14.5945704 17.24760439 14.5945704 17.24760439 13 14 C10.54190002 13.7499227 10.54190002 13.7499227 8 14 C5.15385976 16.84614024 5.54420924 19.80369142 5.375 23.625 C5.33632813 24.33140625 5.29765625 25.0378125 5.2578125 25.765625 C5.16352276 27.50998524 5.08067109 29.25495691 5 31 C3.35 31 1.7 31 0 31 C0 20.77 0 10.54 0 0 Z " fill="#BFC0C2" transform="translate(395,323)"/>
<path d="M0 0 C3.6875 1 3.6875 1 6 2 C6.33 3.98 6.66 5.96 7 8 C2.71 8 -1.58 8 -6 8 C-6 9.65 -6 11.3 -6 13 C-3.36 13 -0.72 13 2 13 C2 14.98 2 16.96 2 19 C-1.68000183 21.45333455 -5.72647768 21.8479211 -10 21 C-13.21954645 18.46546343 -14.70432435 16.88702695 -16 13 C-16.49144838 8.65887265 -16.24183485 6.4586523 -14.1875 2.5625 C-10.37639438 -1.52082745 -5.13675079 -0.66086852 0 0 Z " fill="#101114" transform="translate(314,329)"/>
<path d="M0 0 C0.99 0.495 0.99 0.495 2 1 C1.67 1.99 1.34 2.98 1 4 C1.99 4 2.98 4 4 4 C3.7215625 5.6396875 3.7215625 5.6396875 3.4375 7.3125 C2.7421932 10.93624133 2.7421932 10.93624133 4 14 C2.68 14.33 1.36 14.66 0 15 C-0.08716892 20.49164189 0.10201488 25.71410416 0.87890625 31.15234375 C1 33 1 33 0 35 C0.99 35 1.98 35 3 35 C3 35.66 3 36.32 3 37 C1.35 37.33 -0.3 37.66 -2 38 C-2.33 37.34 -2.66 36.68 -3 36 C-3.33 35.67 -3.66 35.34 -4 35 C-4.33 27.08 -4.66 19.16 -5 11 C-36.68 10.67 -68.36 10.34 -101 10 C-101 9.67 -101 9.34 -101 9 C-67.66666667 9 -34.33333333 9 -1 9 C-0.01 8.67 0.98 8.34 2 8 C1.505 7.01 1.505 7.01 1 6 C0.01 6.33 -0.98 6.66 -2 7 C-2 6.34 -2 5.68 -2 5 C-1.34 5 -0.68 5 0 5 C-0.495 3.515 -0.495 3.515 -1 2 C-0.67 1.34 -0.34 0.68 0 0 Z " fill="#2B2D33" transform="translate(464,200)"/>
<path d="M0 0 C2.5 1 2.5 1 4 2 C3.67 3.32 3.34 4.64 3 6 C0.03 5.67 -2.94 5.34 -6 5 C-6 5.99 -6 6.98 -6 8 C-5.37351562 8.26554687 -4.74703125 8.53109375 -4.1015625 8.8046875 C-2.87566406 9.33449219 -2.87566406 9.33449219 -1.625 9.875 C-0.81289063 10.22304688 -0.00078125 10.57109375 0.8359375 10.9296875 C3 12 3 12 5 14 C4.86895515 17.60373332 4.74035058 20.08196528 2.4375 22.9375 C-1.04047399 24.45353995 -4.30264072 24.57107727 -8 24 C-11 22.5 -11 22.5 -13 21 C-12.67 19.68 -12.34 18.36 -12 17 C-11.30132812 17.144375 -10.60265625 17.28875 -9.8828125 17.4375 C-8.97273438 17.623125 -8.06265625 17.80875 -7.125 18 C-6.22007812 18.185625 -5.31515625 18.37125 -4.3828125 18.5625 C-2.07592097 19.06019595 -2.07592097 19.06019595 0 19 C-0.33 18.01 -0.66 17.02 -1 16 C-3.29283166 14.82751147 -3.29283166 14.82751147 -6 13.9375 C-10.89732528 12.20534944 -10.89732528 12.20534944 -12 10 C-12.38080215 6.49662019 -12.40245078 4.63721374 -10.5 1.625 C-6.99309024 -0.65449134 -4.07498472 -0.5845265 0 0 Z " fill="#E3E4E5" transform="translate(385,331)"/>
<path d="M0 0 C2.5 0.25 2.5 0.25 4.5 2.25 C4.64517744 5.1593558 4.68630796 7.969946 4.625 10.875 C4.61597656 11.67679687 4.60695313 12.47859375 4.59765625 13.3046875 C4.57406223 15.28658523 4.53819065 17.26832981 4.5 19.25 C6.48 19.25 8.46 19.25 10.5 19.25 C9.18 19.58 7.86 19.91 6.5 20.25 C6.5 20.91 6.5 21.57 6.5 22.25 C4.85 21.92 3.2 21.59 1.5 21.25 C1.17 22.24 0.84 23.23 0.5 24.25 C-1.81 23.59 -4.12 22.93 -6.5 22.25 C-6.005 20.765 -6.005 20.765 -5.5 19.25 C-5.27253572 15.60696091 -5.10591891 11.96994639 -4.98242188 8.32226562 C-4.62299287 0.46229929 -4.62299287 0.46229929 0 0 Z " fill="#08090C" transform="translate(405.5,335.75)"/>
<path d="M0 0 C21.12 0 42.24 0 64 0 C63.34 0.33 62.68 0.66 62 1 C62 1.66 62 2.32 62 3 C57.75274593 4.53802079 53.72173541 5.4494395 49.25 6.0625 C44.9803039 6.56294744 44.9803039 6.56294744 41 8 C40.505 5.525 40.505 5.525 40 3 C41.65 3 43.3 3 45 3 C45 2.34 45 1.68 45 1 C44.07767578 1.10828125 44.07767578 1.10828125 43.13671875 1.21875 C42.32847656 1.3115625 41.52023437 1.404375 40.6875 1.5 C39.88699219 1.5928125 39.08648437 1.685625 38.26171875 1.78125 C36 2 36 2 33 2 C31.17578001 2.01152438 29.35156143 2.02327259 27.52734375 2.03515625 C25.33073 2.04446957 23.13411537 2.05357585 20.9375 2.0625 C19.82310547 2.07087891 18.70871094 2.07925781 17.56054688 2.08789062 C15.96629883 2.09272461 15.96629883 2.09272461 14.33984375 2.09765625 C12.87599243 2.10551147 12.87599243 2.10551147 11.38256836 2.11352539 C9 2 9 2 7 1 C6.7834375 2.423125 6.7834375 2.423125 6.5625 3.875 C6 7 6 7 5 9 C4.01 8.67 3.02 8.34 2 8 C1.34 5.36 0.68 2.72 0 0 Z " fill="#181B1F" transform="translate(369,226)"/>
<path d="M0 0 C0.99 0 1.98 0 3 0 C3.335939 1.4577353 3.66866624 2.91621106 4 4.375 C4.185625 5.18710937 4.37125 5.99921875 4.5625 6.8359375 C5 9 5 9 5 11 C5.71027344 11.17015625 6.42054688 11.3403125 7.15234375 11.515625 C8.07144531 11.75796875 8.99054688 12.0003125 9.9375 12.25 C10.85402344 12.48203125 11.77054687 12.7140625 12.71484375 12.953125 C15 14 15 14 15.81640625 16.109375 C15.90728516 17.04523438 15.90728516 17.04523438 16 18 C11.06729471 19.6442351 8.45975807 18.18615592 4 16 C4.33 19.63 4.66 23.26 5 27 C3.35 27 1.7 27 0 27 C-1.19502075 19.03319502 -1.19502075 19.03319502 0 15 C-0.33 14.01 -0.66 13.02 -1 12 C-0.87890625 9.84375 -0.87890625 9.84375 -0.5625 7.5 C-0.22541099 4.93983027 0 2.59100302 0 0 Z " fill="#131316" transform="translate(369,332)"/>
<path d="M0 0 C1.875 0.3828125 1.875 0.3828125 3.875 2.0078125 C5.17118989 5.0862635 5.35788863 7.07157618 4.875 10.3828125 C3.25 12.7578125 3.25 12.7578125 0.875 14.3828125 C-2.26954533 14.83203326 -4.16911529 14.94315871 -6.9375 13.3203125 C-8.75713135 10.35144029 -9.00390756 7.83394702 -9.125 4.3828125 C-7.38300133 -0.14638405 -4.41110615 -0.24325953 0 0 Z " fill="#0A0B0D" transform="translate(435.125,335.6171875)"/>
<path d="M0 0 C2.375 1.625 2.375 1.625 4 4 C4.61195145 7.6717087 4.48706506 9.28813568 2.375 12.375 C0 14 0 14 -3 14.5625 C-6 14 -6 14 -8.375 11.8125 C-10.14232156 8.75367423 -10.70698088 7.44653179 -10 4 C-7.16979976 -0.02759265 -4.82432618 -0.80405436 0 0 Z " fill="#101214" transform="translate(341,336)"/>
<path d="M0 0 C1.65 0 3.3 0 5 0 C5.89571109 10.48670989 5.97960463 20.51069502 5 31 C3.35 31 1.7 31 0 31 C0 20.77 0 10.54 0 0 Z " fill="#F3F4F5" transform="translate(395,323)"/>
<path d="M0 0 C0.33 0 0.66 0 1 0 C1 10.23 1 20.46 1 31 C0.67 31 0.34 31 0 31 C-0.33 29.35 -0.66 27.7 -1 26 C-2.65 26 -4.3 26 -6 26 C-5.01 26.99 -4.02 27.98 -3 29 C-5.31 28.67 -7.62 28.34 -10 28 C-10 26.68 -10 25.36 -10 24 C-9.34 23.67 -8.68 23.34 -8 23 C-4.41479283 16.79483374 -4.68815771 11.03377602 -5 4 C-3.68 4 -2.36 4 -1 4 C-0.67 2.68 -0.34 1.36 0 0 Z " fill="#0B0C0F" transform="translate(449,331)"/>
<path d="M0 0 C2 1.5 2 1.5 3 4 C3.08071998 6.91745069 2.65767013 9.08746085 2 12 C-1.46923881 14.31282587 -2.92205575 14.42478586 -7 14 C-8.875 13 -8.875 13 -10 11 C-10.53653931 7.42307129 -10.65701652 4.23673698 -8.9375 1 C-5.83132725 -0.60318593 -3.42009021 -0.42751128 0 0 Z " fill="#0D0E11" transform="translate(466,336)"/>
<path d="M0 0 C25.08 0 50.16 0 76 0 C76 1.32 76 2.64 76 4 C75.360625 3.814375 74.72125 3.62875 74.0625 3.4375 C73.381875 3.293125 72.70125 3.14875 72 3 C71.67 3.33 71.34 3.66 71 4 C68.32941149 4.14115161 65.67567762 4.04247107 63 4 C61.35 7.3 59.7 10.6 58 14 C57.34 13.34 56.68 12.68 56 12 C56.0234375 9.3984375 56.0234375 9.3984375 56.375 6.375 C56.48585938 5.37210937 56.59671875 4.36921875 56.7109375 3.3359375 C56.80632812 2.56507813 56.90171875 1.79421875 57 1 C56.33014572 1.0169693 55.66029144 1.0339386 54.97013855 1.05142212 C48.01151291 1.22568736 41.05266346 1.38560313 34.09350586 1.53710938 C31.49478716 1.5955842 28.8961487 1.65774373 26.29760742 1.72363281 C22.56704311 1.81759093 18.83639293 1.89838563 15.10546875 1.9765625 C13.93976852 2.00875885 12.7740683 2.0409552 11.57304382 2.0741272 C10.49214981 2.09429901 9.4112558 2.11447083 8.29760742 2.13525391 C7.34496506 2.15746002 6.39232269 2.17966614 5.41081238 2.20254517 C3 2 3 2 0 0 Z " fill="#07090C" transform="translate(384,297)"/>
<path d="M0 0 C4.97333608 -0.29254918 8.0436971 -0.16504232 12 3 C14.57167591 7.21718882 14.55942765 11.18892217 14 16 C12.40710448 19.66365969 10.55551347 22.123479 7 24 C3.25 24.1875 3.25 24.1875 0 24 C0 23.67 0 23.34 0 23 C3.465 22.505 3.465 22.505 7 22 C7 21.01 7 20.02 7 19 C6.34 18.67 5.68 18.34 5 18 C5.66 17.67 6.32 17.34 7 17 C8.37630292 11.16319127 8.37630292 11.16319127 6 6 C2.93443402 5.26656572 2.93443402 5.26656572 0 5 C0.66 4.67 1.32 4.34 2 4 C2.33 3.34 2.66 2.68 3 2 C2.01 1.34 1.02 0.68 0 0 Z " fill="#ECEDEE" transform="translate(460,331)"/>
<path d="M0 0 C11.22 0 22.44 0 34 0 C34 4.95 34 9.9 34 15 C33.67 15 33.34 15 33 15 C33 10.71 33 6.42 33 2 C29.58343976 1.83322718 29.58343976 1.83322718 26 2 C25.34 2.66 24.68 3.32 24 4 C21.0906442 4.14517744 18.280054 4.18630796 15.375 4.125 C14.57320313 4.11597656 13.77140625 4.10695313 12.9453125 4.09765625 C10.96341477 4.07406223 8.98167019 4.03819065 7 4 C7 4.99 7 5.98 7 7 C4.69 6.67 2.38 6.34 0 6 C0 4 0 2 0 0 Z " fill="#0F1116" transform="translate(408,265)"/>
<path d="M0 0 C0.99 0 1.98 0 3 0 C3.83887056 2.43572059 4.67126529 4.87333217 5.5 7.3125 C5.73847656 8.00279297 5.97695313 8.69308594 6.22265625 9.40429688 C7.23208263 12.38931489 8 14.82658914 8 18 C6.35 18.33 4.7 18.66 3 19 C2.67 18.34 2.34 17.68 2 17 C0.68 17 -0.64 17 -2 17 C-1.979375 16.030625 -1.95875 15.06125 -1.9375 14.0625 C-1.64381501 11.12534105 -1.64381501 11.12534105 -3 10 C-4.32520503 9.31731862 -5.65812182 8.6492959 -7 8 C-6.67 6.35 -6.34 4.7 -6 3 C-4.02 3.495 -4.02 3.495 -2 4 C-1.34 2.68 -0.68 1.36 0 0 Z " fill="#1F2328" transform="translate(346,215)"/>
<path d="M0 0 C2.5 1 2.5 1 4 2 C3.67 3.32 3.34 4.64 3 6 C0.03 5.67 -2.94 5.34 -6 5 C-6 5.99 -6 6.98 -6 8 C-3.525 8.99 -3.525 8.99 -1 10 C-2 12 -2 12 -3 13 C-8.24050633 13.4556962 -8.24050633 13.4556962 -10.875 11.875 C-12.55468045 9.07553259 -12.45742277 7.20195936 -12 4 C-8.98646945 -0.77142338 -5.1649612 -0.74087558 0 0 Z " fill="#EBECED" transform="translate(385,331)"/>
<path d="M0 0 C2.44386172 1.43639219 3.99551687 2.94411986 6 5 C5.34 6.32 4.68 7.64 4 9 C3.01 9 2.02 9 1 9 C0.608125 8.505 0.21625 8.01 -0.1875 7.5 C-3.16545197 5.03548803 -6.23230918 5.81470373 -10 6 C-10.33 6.99 -10.66 7.98 -11 9 C-13.475 8.01 -13.475 8.01 -16 7 C-15.0195412 4.41515408 -14.06077857 3.05156969 -11.9375 1.25 C-7.88092942 -0.47620025 -4.34079531 -0.8529282 0 0 Z " fill="#EAEBEC" transform="translate(343,331)"/>
<path d="M0 0 C3.5 0.1875 3.5 0.1875 7 1 C9 4 9 4 8.8125 6.5 C7.91447755 9.26314599 7.42840184 10.4089781 5 12 C1.8125 12.1875 1.8125 12.1875 -1 12 C-2.73745313 9.34271875 -3.00831972 8.10399645 -2.75 4.875 C-2 2 -2 2 0 0 Z " fill="#E4E4E5" transform="translate(447,300)"/>
<path d="M0 0 C1.66666667 1 3.33333333 2 5 3 C5.928125 3.515625 6.85625 4.03125 7.8125 4.5625 C8.534375 5.036875 9.25625 5.51125 10 6 C10 6.66 10 7.32 10 8 C25.18 8.33 40.36 8.66 56 9 C56 9.33 56 9.66 56 10 C38.18 10 20.36 10 2 10 C0 4 0 4 0 0 Z " fill="#0B0C10" transform="translate(384,270)"/>
<path d="M0 0 C2.9375 0.8125 2.9375 0.8125 4.9375 2.8125 C5.3125 5.75 5.3125 5.75 4.9375 8.8125 C2.7168949 11.279839 1.50180797 11.77402446 -1.8125 12 C-2.555 11.938125 -3.2975 11.87625 -4.0625 11.8125 C-5.9079602 8.69828592 -6.52619062 6.42928684 -6.0625 2.8125 C-4.28235296 -0.15441173 -3.48497618 -0.21336589 0 0 Z " fill="#EBECED" transform="translate(384.0625,300.1875)"/>
<path d="M0 0 C2.32602868 3.48904301 3.41117582 7.03390006 4.625 11 C4.85445313 11.72445312 5.08390625 12.44890625 5.3203125 13.1953125 C6.26068056 16.22911898 7 18.80543588 7 22 C6.01 22.33 5.02 22.66 4 23 C4.33 21.68 4.66 20.36 5 19 C3.02 19.99 3.02 19.99 1 21 C0.34 18.03 -0.32 15.06 -1 12 C-0.01 11.34 0.98 10.68 2 10 C1.360625 9.87625 0.72125 9.7525 0.0625 9.625 C-0.618125 9.41875 -1.29875 9.2125 -2 9 C-2.33 8.34 -2.66 7.68 -3 7 C-3.99 6.67 -4.98 6.34 -6 6 C-5.34 4.68 -4.68 3.36 -4 2 C-2.68 2.66 -1.36 3.32 0 4 C0 2.68 0 1.36 0 0 Z " fill="#23262B" transform="translate(354,233)"/>
<path d="M0 0 C0.33 0.66 0.66 1.32 1 2 C1.66 2 2.32 2 3 2 C2.96677164 4.06317919 2.89716508 6.12579092 2.8125 8.1875 C2.76029297 9.91033203 2.76029297 9.91033203 2.70703125 11.66796875 C2 15 2 15 -3 20 C-3.33 13.73 -3.66 7.46 -4 1 C-2.68 1.33 -1.36 1.66 0 2 C0 1.34 0 0.68 0 0 Z " fill="#050608" transform="translate(419,333)"/>
<path d="M0 0 C2.015625 1.05078125 2.015625 1.05078125 4 3 C4.171875 6.35546875 4.171875 6.35546875 3.75 10.1875 C3.62109375 11.45980469 3.4921875 12.73210937 3.359375 14.04296875 C3.24078125 15.01878906 3.1221875 15.99460938 3 17 C3.66 17.33 4.32 17.66 5 18 C4.34 18.33 3.68 18.66 3 19 C0.375 18.0625 0.375 18.0625 -2 17 C-3.31281522 10.43592388 -2.52653315 6.16645379 0 0 Z " fill="#262B33" transform="translate(355,151)"/>
<path d="M0 0 C4.29 0 8.58 0 13 0 C13 1.98 13 3.96 13 6 C8.71 6 4.42 6 0 6 C0 4.02 0 2.04 0 0 Z " fill="#D5D6D8" transform="translate(355,338)"/>
<path d="M0 0 C1.24546405 2.49092811 0.7767578 3.41080733 0 6 C1.32 6 2.64 6 4 6 C4 8.31 4 10.62 4 13 C2.02 13.99 2.02 13.99 0 15 C0.33 13.68 0.66 12.36 1 11 C-2.11332248 11.66868314 -2.11332248 11.66868314 -3.1875 14.0625 C-3.455625 14.701875 -3.72375 15.34125 -4 16 C-4 15.34 -4 14.68 -4 14 C-4.66 13.67 -5.32 13.34 -6 13 C-6 12.01 -6 11.02 -6 10 C-6.66 9.67 -7.32 9.34 -8 9 C-8 8.34 -8 7.68 -8 7 C-6.02 7 -4.04 7 -2 7 C-2.04125 6.21625 -2.0825 5.4325 -2.125 4.625 C-2 2 -2 2 0 0 Z " fill="#22272E" transform="translate(442,104)"/>
<path d="M0 0 C1.8871875 0.061875 1.8871875 0.061875 3.8125 0.125 C3.4825 1.115 3.1525 2.105 2.8125 3.125 C1.843125 3.558125 0.87375 3.99125 -0.125 4.4375 C-3.46340224 5.86911035 -3.46340224 5.86911035 -4.5625 9.3125 C-4.76875 10.240625 -4.975 11.16875 -5.1875 12.125 C-6.8375 12.455 -8.4875 12.785 -10.1875 13.125 C-10.51271241 8.4636221 -10.00701666 5.88435554 -7.1875 2.125 C-4.09861478 0.06574319 -3.47814073 -0.1140374 0 0 Z " fill="#F4F4F5" transform="translate(431.1875,331.875)"/>
<path d="M0 0 C1.37562854 1.28965176 2.70766393 2.62689293 4 4 C4 4.66 4 5.32 4 6 C6.31 6.33 8.62 6.66 11 7 C9.68 8.32 8.36 9.64 7 11 C8.65 11 10.3 11 12 11 C12 11.33 12 11.66 12 12 C7.01530948 12.29321709 3.95179356 12.18338925 0 9 C-3 4.75862069 -3 4.75862069 -3 2 C-2.01 1.34 -1.02 0.68 0 0 Z " fill="#EBECED" transform="translate(424,343)"/>
<path d="M0 0 C0 5.94 0 11.88 0 18 C-1.32 18 -2.64 18 -4 18 C-4 12.39 -4 6.78 -4 1 C-2 0 -2 0 0 0 Z " fill="#FBFCFD" transform="translate(415,336)"/>
<path d="M0 0 C0.99 0 1.98 0 3 0 C3.99 3.63 4.98 7.26 6 11 C4.35 11 2.7 11 1 11 C0.67 10.34 0.34 9.68 0 9 C-0.99 9.33 -1.98 9.66 -3 10 C-5.1875 9.0625 -5.1875 9.0625 -7 8 C-6.67 6.35 -6.34 4.7 -6 3 C-4.02 3.495 -4.02 3.495 -2 4 C-1.34 2.68 -0.68 1.36 0 0 Z " fill="#262930" transform="translate(346,215)"/>
<path d="M0 0 C0.7734375 0.495 0.7734375 0.495 1.5625 1 C6.26743879 2.9302313 11.16025288 2.17327203 16 1 C15.625 3.4375 15.625 3.4375 15 6 C14.01 6.495 14.01 6.495 13 7 C12.67 6.67 12.34 6.34 12 6 C8.12676375 5.67723031 5.53224919 6.47254089 2 8 C1.34 8 0.68 8 0 8 C0 5.36 0 2.72 0 0 Z " fill="#0D0E11" transform="translate(456,352)"/>
<path d="M0 0 C1.65 0.33 3.3 0.66 5 1 C4.67 3.31 4.34 5.62 4 8 C4.66 8.33 5.32 8.66 6 9 C5.01 9.66 4.02 10.32 3 11 C2.27617533 13.05925139 2.27617533 13.05925139 2 15 C0.68 15 -0.64 15 -2 15 C-2 14.01 -2 13.02 -2 12 C-2.33 11.34 -2.66 10.68 -3 10 C-2.34 10 -1.68 10 -1 10 C-0.67 6.7 -0.34 3.4 0 0 Z " fill="#252A30" transform="translate(291,104)"/>
<path d="M0 0 C0.33 0 0.66 0 1 0 C1 10.23 1 20.46 1 31 C0.67 31 0.34 31 0 31 C-0.33 25.39 -0.66 19.78 -1 14 C-1.66 13.67 -2.32 13.34 -3 13 C-3 11.02 -3 9.04 -3 7 C-3.66 6.67 -4.32 6.34 -5 6 C-4.67 5.01 -4.34 4.02 -4 3 C-3.01 3.33 -2.02 3.66 -1 4 C-0.67 2.68 -0.34 1.36 0 0 Z " fill="#050608" transform="translate(449,331)"/>
<path d="M0 0 C0.99 0 1.98 0 3 0 C3.06058594 0.74765625 3.12117187 1.4953125 3.18359375 2.265625 C3.26738281 3.25046875 3.35117188 4.2353125 3.4375 5.25 C3.51871094 6.22453125 3.59992188 7.1990625 3.68359375 8.203125 C3.95074584 10.56461753 4.35371968 12.71901065 5 15 C4.01 15.66 3.02 16.32 2 17 C1.01 16.34 0.02 15.68 -1 15 C-1.328125 12.5390625 -1.328125 12.5390625 -1.25 9.625 C-1.23453125 8.66851562 -1.2190625 7.71203125 -1.203125 6.7265625 C-1.02600523 4.34907017 -0.66988593 2.27977308 0 0 Z " fill="#272C33" transform="translate(249,176)"/>
<path d="M0 0 C0.763125 0.309375 1.52625 0.61875 2.3125 0.9375 C7.17314841 2.33802581 11.96858173 2.65979734 17 3 C16.01 3.495 16.01 3.495 15 4 C14.67 4.66 14.34 5.32 14 6 C13.67 5.67 13.34 5.34 13 5 C12.67 5.66 12.34 6.32 12 7 C8.95613276 7.08226668 6.92824652 6.97608217 4 6 C2.66893378 5.65772583 1.33599921 5.32248257 0 5 C-0.5625 3.0625 -0.5625 3.0625 -1 1 C-0.67 0.67 -0.34 0.34 0 0 Z " fill="#0C0E11" transform="translate(297,352)"/>
<path d="M0 0 C2.8990531 0.08418303 3.75595876 0.12593524 6.0625 2 C7.29568878 4.92882336 7.2770758 7.22788821 7.0625 10.375 C6.0725 10.87 6.0725 10.87 5.0625 11.375 C4.7325 10.385 4.4025 9.395 4.0625 8.375 C4.3925 7.715 4.7225 7.055 5.0625 6.375 C4.0725 6.375 3.0825 6.375 2.0625 6.375 C1.7325 5.055 1.4025 3.735 1.0625 2.375 C-2.7327131 3.86597658 -4.54792731 6.13200849 -6.9375 9.375 C-5.95889037 0.56751337 -5.95889037 0.56751337 0 0 Z " fill="#1A1B1E" transform="translate(432.9375,335.625)"/>
<path d="M0 0 C0.99 0.33 1.98 0.66 3 1 C3.33 1.99 3.66 2.98 4 4 C4.99 4 5.98 4 7 4 C7 3.01 7 2.02 7 1 C7.66 1 8.32 1 9 1 C9.6875 2.6875 9.6875 2.6875 10 5 C8.75 7.75 8.75 7.75 7 10 C6.01 10 5.02 10 4 10 C3.67 9.34 3.34 8.68 3 8 C1.68 8.33 0.36 8.66 -1 9 C-0.67 6.03 -0.34 3.06 0 0 Z " fill="#272B35" transform="translate(582,191)"/>
<path d="M0 0 C0 1.32 0 2.64 0 4 C0.66 4.33 1.32 4.66 2 5 C1.34 5 0.68 5 0 5 C0 5.99 0 6.98 0 8 C-2.31 7.67 -4.62 7.34 -7 7 C-6.95875 6.21625 -6.9175 5.4325 -6.875 4.625 C-6.71271266 1.83883881 -6.71271266 1.83883881 -9 0 C-5.52176885 -1.15941038 -3.54104422 -0.70820884 0 0 Z " fill="#282C35" transform="translate(346,160)"/>
<path d="M0 0 C0.05399736 1.45792884 0.09279177 2.91642712 0.125 4.375 C0.14820313 5.18710937 0.17140625 5.99921875 0.1953125 6.8359375 C0 9 0 9 -2 11 C-3.31747324 11.69748583 -4.64914193 12.36959957 -6 13 C-7.14271055 9.57186835 -6.82699932 8.69088901 -5.6875 5.375 C-5.42324219 4.57835937 -5.15898437 3.78171875 -4.88671875 2.9609375 C-3.71304666 0.36541596 -2.81485142 0 0 0 Z " fill="#F3F4F5" transform="translate(350,338)"/>
<path d="M0 0 C1.66666667 1 3.33333333 2 5 3 C5.928125 3.515625 6.85625 4.03125 7.8125 4.5625 C8.534375 5.036875 9.25625 5.51125 10 6 C10 6.66 10 7.32 10 8 C12.64 8 15.28 8 18 8 C18 8.33 18 8.66 18 9 C17.01257813 8.98839844 16.02515625 8.97679687 15.0078125 8.96484375 C13.72648437 8.95582031 12.44515625 8.94679688 11.125 8.9375 C9.21074219 8.92009766 9.21074219 8.92009766 7.2578125 8.90234375 C4.11335348 8.76823431 4.11335348 8.76823431 2 10 C0.68373308 6.38026598 0 3.90432869 0 0 Z " fill="#15181C" transform="translate(384,270)"/>
<path d="M0 0 C0.33 1.32 0.66 2.64 1 4 C1.639375 4.12375 2.27875 4.2475 2.9375 4.375 C3.618125 4.58125 4.29875 4.7875 5 5 C5.33 5.66 5.66 6.32 6 7 C7.65 6.67 9.3 6.34 11 6 C11.33 6.99 11.66 7.98 12 9 C8.53076119 11.31282587 7.07794425 11.42478586 3 11 C1.125 10 1.125 10 0 8 C-0.24131207 5.28121737 -0.1347929 2.7407889 0 0 Z " fill="#161719" transform="translate(456,339)"/>
<path d="M0 0 C3 0 3 0 4.38671875 1.3125 C5.59114583 2.875 6.79557292 4.4375 8 6 C7.34 7.32 6.68 8.64 6 10 C3.69 9.34 1.38 8.68 -1 8 C-0.67 5.36 -0.34 2.72 0 0 Z " fill="#323643" transform="translate(511,183)"/>
<path d="M0 0 C0.33 0.66 0.66 1.32 1 2 C0.01 2 -0.98 2 -2 2 C-1.855625 2.5775 -1.71125 3.155 -1.5625 3.75 C-1.04166667 5.83333333 -0.52083333 7.91666667 0 10 C-0.66 10 -1.32 10 -2 10 C-2.33 9.34 -2.66 8.68 -3 8 C-5.52733235 7.34444881 -5.52733235 7.34444881 -8 7 C-8 5.02 -8 3.04 -8 1 C-5.07175348 0.02391783 -3.04386724 -0.08226668 0 0 Z " fill="#2A2E38" transform="translate(488,159)"/>
<path d="M0 0 C2.69082872 0.17635452 5.32851446 0.61835921 8 1 C7.25 3.4375 7.25 3.4375 6 6 C3.9375 6.6875 3.9375 6.6875 2 7 C1.67 7.66 1.34 8.32 1 9 C0.34 9 -0.32 9 -1 9 C-1.09765625 2.84765625 -1.09765625 2.84765625 -1 1 C-0.67 0.67 -0.34 0.34 0 0 Z " fill="#2B2F3A" transform="translate(368,144)"/>
<path d="M0 0 C0.515625 0.2475 1.03125 0.495 1.5625 0.75 C1.25 2.625 1.25 2.625 0.5625 4.75 C-2.52638522 6.80925681 -3.14685927 6.9890374 -6.625 6.875 C-8.5121875 6.813125 -8.5121875 6.813125 -10.4375 6.75 C-9.15564628 2.90443885 -7.65170223 2.32931973 -4.2265625 0.46875 C-2.4375 -0.25 -2.4375 -0.25 0 0 Z " fill="#F2F3F4" transform="translate(441.4375,347.25)"/>
<path d="M0 0 C2.5 -0.375 2.5 -0.375 5 0 C5.66 0.99 6.32 1.98 7 3 C6.67 3.99 6.34 4.98 6 6 C5.9314505 7.89470816 5.91519628 9.7916834 5.9375 11.6875 C5.94652344 12.68136719 5.95554687 13.67523438 5.96484375 14.69921875 C5.97644531 15.45847656 5.98804688 16.21773438 6 17 C5.67 17 5.34 17 5 17 C4.855625 15.7625 4.71125 14.525 4.5625 13.25 C4.46582031 12.52039063 4.36914062 11.79078125 4.26953125 11.0390625 C4.07538815 9.57032772 3.90509161 8.09837028 3.75 6.625 C3.06896067 4.69932573 3.06896067 4.69932573 0.4375 3.75 C-0.366875 3.5025 -1.17125 3.255 -2 3 C-1.34 2.01 -0.68 1.02 0 0 Z " fill="#0F1013" transform="translate(403,336)"/>
<path d="M0 0 C-0.66 0 -1.32 0 -2 0 C-2 2.31 -2 4.62 -2 7 C-2.99 7.495 -2.99 7.495 -4 8 C-4.33 7.01 -4.66 6.02 -5 5 C-5.99 5.495 -5.99 5.495 -7 6 C-7.99 6.33 -8.98 6.66 -10 7 C-10 2 -10 2 -8 0 C-4.69164744 -0.93312508 -3.32320026 -1.10773342 0 0 Z " fill="#1E2329" transform="translate(589,112)"/>
<path d="M0 0 C3.4375 0.8125 3.4375 0.8125 7 2 C7.33 2.99 7.66 3.98 8 5 C10.00016466 6.20882096 10.00016466 6.20882096 12 7 C6.60550707 7.27429625 3.48074195 7.36055646 -1 4 C-0.67 2.68 -0.34 1.36 0 0 Z " fill="#D6D7D8" transform="translate(373,348)"/>
<path d="M0 0 C0.33 0.66 0.66 1.32 1 2 C1.90363281 1.91621094 2.80726563 1.83242188 3.73828125 1.74609375 C5.50751953 1.59333984 5.50751953 1.59333984 7.3125 1.4375 C8.48425781 1.33308594 9.65601563 1.22867187 10.86328125 1.12109375 C14 1 14 1 17 2 C17 2.33 17 2.66 17 3 C12.38 3 7.76 3 3 3 C3 4.98 3 6.96 3 9 C2.01 9.66 1.02 10.32 0 11 C-1.125 3.375 -1.125 3.375 0 0 Z " fill="#07070A" transform="translate(351,335)"/>
<path d="M0 0 C5.61 0 11.22 0 17 0 C16.67 0.66 16.34 1.32 16 2 C13.12890625 2.59765625 13.12890625 2.59765625 9.5625 3.0625 C5.13296298 3.54058704 5.13296298 3.54058704 1 5 C0.67 3.35 0.34 1.7 0 0 Z " fill="#1B1F27" transform="translate(409,229)"/>
<path d="M0 0 C5.28 0 10.56 0 16 0 C15.34 1.32 14.68 2.64 14 4 C13.34 4 12.68 4 12 4 C12 4.99 12 5.98 12 7 C10.68 6.67 9.36 6.34 8 6 C8 4.35 8 2.7 8 1 C5.36 1 2.72 1 0 1 C0 0.67 0 0.34 0 0 Z " fill="#22272E" transform="translate(280,289)"/>
<path d="M0 0 C0.66 0 1.32 0 2 0 C3 3 3 3 2.3125 5.125 C1 7 1 7 -0.875 7.75 C-3 8 -3 8 -7 8 C-6.42655063 5.13275314 -6.1385485 4.1385485 -4 2 C-4 2.66 -4 3.32 -4 4 C-3.34 4 -2.68 4 -2 4 C-2 3.34 -2 2.68 -2 2 C-1.34 2 -0.68 2 0 2 C0 1.34 0 0.68 0 0 Z " fill="#292D38" transform="translate(445,192)"/>
<path d="M0 0 C1.4540625 0.0309375 1.4540625 0.0309375 2.9375 0.0625 C2.6075 3.0325 2.2775 6.0025 1.9375 9.0625 C-0.5 8.4375 -0.5 8.4375 -3.0625 7.0625 C-3.9375 4 -3.9375 4 -4.0625 1.0625 C-3.0625 0.0625 -3.0625 0.0625 0 0 Z " fill="#21262B" transform="translate(308.0625,223.9375)"/>
<path d="M0 0 C1.65 0.33 3.3 0.66 5 1 C4.67 1.66 4.34 2.32 4 3 C4 3.66 4 4.32 4 5 C4 6.32 4 7.64 4 9 C2.125 10.0625 2.125 10.0625 0 11 C-0.66 10.67 -1.32 10.34 -2 10 C-2 9.01 -2 8.02 -2 7 C-1.34 6.67 -0.68 6.34 0 6 C-0.33 5.67 -0.66 5.34 -1 5 C-1.33 4.34 -1.66 3.68 -2 3 C-1.34 2.01 -0.68 1.02 0 0 Z " fill="#323643" transform="translate(418,166)"/>
<path d="M0 0 C3 3 3 3 3.1796875 5.62890625 C3.07914062 6.59699219 2.97859375 7.56507813 2.875 8.5625 C2.78992188 9.53316406 2.70484375 10.50382813 2.6171875 11.50390625 C2 14 2 14 -1 16 C-0.67 10.72 -0.34 5.44 0 0 Z " fill="#242831" transform="translate(332,144)"/>
<path d="M0 0 C0.33 1.32 0.66 2.64 1 4 C2.65 2.68 4.3 1.36 6 0 C6 0.66 6 1.32 6 2 C7.32 1.67 8.64 1.34 10 1 C10.33 1.99 10.66 2.98 11 4 C7.53076119 6.31282587 6.07794425 6.42478586 2 6 C0.125 4.5 0.125 4.5 -1 3 C-0.67 2.01 -0.34 1.02 0 0 Z " fill="#131417" transform="translate(428,344)"/>
<path d="M0 0 C0 4.62 0 9.24 0 14 C-0.66 12.68 -1.32 11.36 -2 10 C-2.66 10 -3.32 10 -4 10 C-4.33 7.03 -4.66 4.06 -5 1 C-3 0 -3 0 0 0 Z " fill="#27292D" transform="translate(293,330)"/>
<path d="M0 0 C1.43655854 -0.08131463 2.8744483 -0.13933559 4.3125 -0.1875 C5.51326172 -0.23970703 5.51326172 -0.23970703 6.73828125 -0.29296875 C9.47851584 0.06198392 10.29171079 0.89366282 12 3 C10.6078125 3.433125 10.6078125 3.433125 9.1875 3.875 C5.90208333 4.8875 5.90208333 4.8875 3 7 C0 2.25 0 2.25 0 0 Z " fill="#0A0B0E" transform="translate(374,297)"/>
<path d="M0 0 C0.99 0.33 1.98 0.66 3 1 C2.34 4.3 1.68 7.6 1 11 C0.34 10.34 -0.32 9.68 -1 9 C-1.99 9.33 -2.98 9.66 -4 10 C-3.38461538 3.47692308 -3.38461538 3.47692308 -1.4375 1.0625 C-0.7259375 0.5365625 -0.7259375 0.5365625 0 0 Z " fill="#2A2E39" transform="translate(541,221)"/>
<path d="M0 0 C0.99 0.33 1.98 0.66 3 1 C2.125 5.875 2.125 5.875 1 7 C-1.33297433 7.04092937 -3.66705225 7.04241723 -6 7 C-6.33 6.01 -6.66 5.02 -7 4 C-6.030625 3.71125 -5.06125 3.4225 -4.0625 3.125 C-0.89335797 2.35785318 -0.89335797 2.35785318 0 0 Z " fill="#F3F4F5" transform="translate(386,347)"/>
<path d="M0 0 C0.99 0.33 1.98 0.66 3 1 C4.52160014 4.6037898 5 7.05220686 5 11 C3.35 11 1.7 11 0 11 C-1.125 3.375 -1.125 3.375 0 0 Z " fill="#101115" transform="translate(369,348)"/>
<path d="M0 0 C2 1 2 1 4 3 C4.39764263 4.98821313 4.73775349 6.98944339 5 9 C4.01 9.495 4.01 9.495 3 10 C3 10.66 3 11.32 3 12 C2.01 12.33 1.02 12.66 0 13 C0 8.71 0 4.42 0 0 Z " fill="#0A0B0D" transform="translate(321,338)"/>
<path d="M0 0 C1.670625 0.061875 1.670625 0.061875 3.375 0.125 C1.89 1.61 1.89 1.61 0.375 3.125 C1.035 3.455 1.695 3.785 2.375 4.125 C2.705 3.465 3.035 2.805 3.375 2.125 C3.705 3.115 4.035 4.105 4.375 5.125 C1.1785914 6.19046953 -1.28247276 6.19927838 -4.625 6.125 C-5.25 4.25 -5.25 4.25 -5.625 2.125 C-3.625 0.125 -3.625 0.125 0 0 Z " fill="#070809" transform="translate(308.625,328.875)"/>
<path d="M0 0 C0.33 0 0.66 0 1 0 C1.33 4.29 1.66 8.58 2 13 C0.35 12.67 -1.3 12.34 -3 12 C-3 9.69 -3 7.38 -3 5 C-2.34 5 -1.68 5 -1 5 C-0.67 3.35 -0.34 1.7 0 0 Z " fill="#252933" transform="translate(493,219)"/>
<path d="M0 0 C0.99 1.485 0.99 1.485 2 3 C3.66500443 3.34153937 5.33178677 3.67449498 7 4 C8.8125 5.5625 8.8125 5.5625 10 7 C8.3603125 7.2165625 8.3603125 7.2165625 6.6875 7.4375 C3.06877013 7.88288104 3.06877013 7.88288104 0 9 C0 6.03 0 3.06 0 0 Z " fill="#0E0F12" transform="translate(401,324)"/>
<path d="M0 0 C0.66 0.33 1.32 0.66 2 1 C1.67 1.99 1.34 2.98 1 4 C1.99 4 2.98 4 4 4 C3.67 6.31 3.34 8.62 3 11 C1.35 11.33 -0.3 11.66 -2 12 C-1.34 10.68 -0.68 9.36 0 8 C0.66 8 1.32 8 2 8 C1.67 7.34 1.34 6.68 1 6 C0.01 6.33 -0.98 6.66 -2 7 C-2 6.34 -2 5.68 -2 5 C-1.34 5 -0.68 5 0 5 C-0.33 4.01 -0.66 3.02 -1 2 C-0.67 1.34 -0.34 0.68 0 0 Z " fill="#2D313C" transform="translate(464,200)"/>
<path d="M0 0 C0.66 0.99 1.32 1.98 2 3 C2.66 2.67 3.32 2.34 4 2 C4 3.32 4 4.64 4 6 C1.59454362 7.20272819 0.05003047 7.10071472 -2.625 7.0625 C-3.85089844 7.04896484 -3.85089844 7.04896484 -5.1015625 7.03515625 C-6.04128906 7.01775391 -6.04128906 7.01775391 -7 7 C-7 5.68 -7 4.36 -7 3 C-6.67 3.66 -6.34 4.32 -6 5 C-4.35 5 -2.7 5 -1 5 C-0.67 3.35 -0.34 1.7 0 0 Z " fill="#1E202A" transform="translate(423,202)"/>
<path d="M0 0 C3.12826838 0.29100171 4.37427733 1.19380207 6.6875 3.25 C5.6975 3.58 4.7075 3.91 3.6875 4.25 C3.3575 4.91 3.0275 5.57 2.6875 6.25 C1.0375 5.92 -0.6125 5.59 -2.3125 5.25 C-2.875 3.3125 -2.875 3.3125 -3.3125 1.25 C-2.3125 0.25 -2.3125 0.25 0 0 Z " fill="#232427" transform="translate(381.3125,334.75)"/>
<path d="M0 0 C0.33 0.99 0.66 1.98 1 3 C-3.97504047 6.24900602 -6.88225104 7.49940808 -13 7 C-13 6.67 -13 6.34 -13 6 C-11.02 5.67 -9.04 5.34 -7 5 C-7.99 4.01 -8.98 3.02 -10 2 C-7.1875 1.375 -7.1875 1.375 -4 1 C-3.01 1.66 -2.02 2.32 -1 3 C-0.67 2.01 -0.34 1.02 0 0 Z " fill="#DFE0E2" transform="translate(347,348)"/>
<path d="M0 0 C1.41973403 2.65017018 2.35828704 5.06645502 3 8 C3.185625 8.7425 3.37125 9.485 3.5625 10.25 C3.7790625 11.11625 3.7790625 11.11625 4 12 C1.525 13.485 1.525 13.485 -1 15 C-1.33 14.34 -1.66 13.68 -2 13 C-1.67 12.34 -1.34 11.68 -1 11 C-0.95509079 9.31309769 -0.96116137 7.624553 -1 5.9375 C-1.03777102 4.29210014 -1.04642479 2.64517844 -1 1 C-0.67 0.67 -0.34 0.34 0 0 Z " fill="#18191C" transform="translate(445,336)"/>
<path d="M0 0 C1.90318884 2.85478326 2.4619099 4.41941308 3.125 7.6875 C3.29257812 8.49574219 3.46015625 9.30398438 3.6328125 10.13671875 C3.75398438 10.75160156 3.87515625 11.36648438 4 12 C3.34 12 2.68 12 2 12 C2 12.99 2 13.98 2 15 C1.34 14.67 0.68 14.34 0 14 C0.020625 12.9275 0.04125 11.855 0.0625 10.75 C0.14516436 7.21993579 0.14516436 7.21993579 -0.5625 4.75 C-1 3 -1 3 0 0 Z " fill="#1F2125" transform="translate(369,280)"/>
<path d="M0 0 C0.66 0.33 1.32 0.66 2 1 C2.6328125 3.06640625 2.6328125 3.06640625 3.125 5.5625 C3.29257812 6.38878906 3.46015625 7.21507812 3.6328125 8.06640625 C3.75398438 8.70449219 3.87515625 9.34257812 4 10 C3.01 10.33 2.02 10.66 1 11 C1.33 9.68 1.66 8.36 2 7 C0.02 7.99 0.02 7.99 -2 9 C-2.33 7.02 -2.66 5.04 -3 3 C-2.01 3.495 -2.01 3.495 -1 4 C-0.67 2.68 -0.34 1.36 0 0 Z " fill="#1E2025" transform="translate(357,245)"/>
<path d="M0 0 C0.33 1.32 0.66 2.64 1 4 C2.32 4 3.64 4 5 4 C5 5.65 5 7.3 5 9 C5.66 9.33 6.32 9.66 7 10 C6.01 10.495 6.01 10.495 5 11 C2.375 10.0625 2.375 10.0625 0 9 C-0.87890625 2.84765625 -0.87890625 2.84765625 -1 1 C-0.67 0.67 -0.34 0.34 0 0 Z " fill="#292D36" transform="translate(353,159)"/>
<path d="M0 0 C0.66 0.33 1.32 0.66 2 1 C2.99 1 3.98 1 5 1 C5.99 1.33 6.98 1.66 8 2 C7.34 3.32 6.68 4.64 6 6 C3.125 6.1875 3.125 6.1875 0 6 C-0.66 5.01 -1.32 4.02 -2 3 C-1.34 2.01 -0.68 1.02 0 0 Z " fill="#0B0C0E" transform="translate(335,344)"/>
<path d="M0 0 C1.98 0.495 1.98 0.495 4 1 C4.1875 4.375 4.1875 4.375 4 8 C3.01 8.66 2.02 9.32 1 10 C1 9.34 1 8.68 1 8 C0.34 7.67 -0.32 7.34 -1 7 C-0.67 4.69 -0.34 2.38 0 0 Z " fill="#262A34" transform="translate(394,144)"/>
<path d="M0 0 C1.21236328 0.01353516 1.21236328 0.01353516 2.44921875 0.02734375 C3.37154297 0.04474609 3.37154297 0.04474609 4.3125 0.0625 C4.3125 0.7225 4.3125 1.3825 4.3125 2.0625 C5.3025 2.3925 6.2925 2.7225 7.3125 3.0625 C2.3625 3.0625 -2.5875 3.0625 -7.6875 3.0625 C-7.6875 2.4025 -7.6875 1.7425 -7.6875 1.0625 C-4.80538698 0.10179566 -2.98899956 -0.04331883 0 0 Z " fill="#22272D" transform="translate(288.6875,88.9375)"/>
<path d="M0 0 C2 2 2 2 3 7 C-0.96 7 -4.92 7 -9 7 C-9 6.67 -9 6.34 -9 6 C-8.21625 5.896875 -7.4325 5.79375 -6.625 5.6875 C-3.66954819 5.22404978 -3.66954819 5.22404978 -2 2 C-1.34 2 -0.68 2 0 2 C0 1.34 0 0.68 0 0 Z " fill="#07080B" transform="translate(318,330)"/>
<path d="M0 0 C2.0625 0.4375 2.0625 0.4375 4 1 C4 2.65 4 4.3 4 6 C2.35 6.66 0.7 7.32 -1 8 C-1.33 7.01 -1.66 6.02 -2 5 C-2.66 4.67 -3.32 4.34 -4 4 C-2.68 4 -1.36 4 0 4 C-0.33 3.01 -0.66 2.02 -1 1 C-0.67 0.67 -0.34 0.34 0 0 Z " fill="#282C35" transform="translate(584,262)"/>
<path d="M0 0 C0.99 0 1.98 0 3 0 C2.67 2.97 2.34 5.94 2 9 C1.01 8.67 0.02 8.34 -1 8 C-1.625 5.125 -1.625 5.125 -2 2 C-1.34 1.34 -0.68 0.68 0 0 Z " fill="#111316" transform="translate(419,337)"/>
<path d="M0 0 C6.4 -0.49230769 6.4 -0.49230769 9.4375 2 C10.2109375 2.99 10.2109375 2.99 11 4 C10.01 4.495 10.01 4.495 9 5 C8.67 5.66 8.34 6.32 8 7 C7.01 7 6.02 7 5 7 C4.67 5.68 4.34 4.36 4 3 C4.66 2.67 5.32 2.34 6 2 C3.03 1.505 3.03 1.505 0 1 C0 0.67 0 0.34 0 0 Z " fill="#E3E4E6" transform="translate(404,331)"/>
<path d="M0 0 C1.98 0.495 1.98 0.495 4 1 C4.33 4.96 4.66 8.92 5 13 C3.68 12.67 2.36 12.34 1 12 C1.66 8.7 2.32 5.4 3 2 C2.34 2 1.68 2 1 2 C1.33 3.65 1.66 5.3 2 7 C1.01 6.67 0.02 6.34 -1 6 C-0.67 4.02 -0.34 2.04 0 0 Z " fill="#2A2F38" transform="translate(398,193)"/>
<path d="M0 0 C0.66 0.33 1.32 0.66 2 1 C1.125 8.75 1.125 8.75 0 11 C-2.32156597 11.40729228 -4.6568787 11.74438677 -7 12 C-6.67 11.01 -6.34 10.02 -6 9 C-4.68 9 -3.36 9 -2 9 C-1.34 6.03 -0.68 3.06 0 0 Z " fill="#282C36" transform="translate(517,135)"/>
<path d="M0 0 C2.31 0 4.62 0 7 0 C7 2.31 7 4.62 7 7 C5.68 7.33 4.36 7.66 3 8 C2.4465236 5.92446352 2 4.15634036 2 2 C1.34 2 0.68 2 0 2 C0 1.34 0 0.68 0 0 Z " fill="#21262C" transform="translate(185,121)"/>
<path d="M0 0 C0.66 0 1.32 0 2 0 C3.125 7.625 3.125 7.625 2 11 C1.34 11 0.68 11 0 11 C-0.19491452 9.54263913 -0.38069358 8.08405407 -0.5625 6.625 C-0.66691406 5.81289063 -0.77132812 5.00078125 -0.87890625 4.1640625 C-1 2 -1 2 0 0 Z " fill="#21262C" transform="translate(590,293)"/>
<path d="M0 0 C0.33 0 0.66 0 1 0 C1 4.62 1 9.24 1 14 C-0.32 13.67 -1.64 13.34 -3 13 C-3 10.69 -3 8.38 -3 6 C-2.01 6.33 -1.02 6.66 0 7 C0 4.69 0 2.38 0 0 Z " fill="#141519" transform="translate(408,250)"/>
<path d="M0 0 C0.66 0 1.32 0 2 0 C2 2.64 2 5.28 2 8 C0.35 7.67 -1.3 7.34 -3 7 C-3.33 7.66 -3.66 8.32 -4 9 C-3.4739075 5.21213403 -2.61896089 2.82847776 0 0 Z " fill="#313441" transform="translate(436,184)"/>
<path d="M0 0 C0.66 0.66 1.32 1.32 2 2 C1.34 3.32 0.68 4.64 0 6 C0.99 7.485 0.99 7.485 2 9 C1.01 9.33 0.02 9.66 -1 10 C-1.33 9.34 -1.66 8.68 -2 8 C-4.01669827 6.86649466 -4.01669827 6.86649466 -6 6 C-6 5.34 -6 4.68 -6 4 C-4.35 3.67 -2.7 3.34 -1 3 C-0.67 2.01 -0.34 1.02 0 0 Z " fill="#2F333E" transform="translate(466,165)"/>
<path d="M0 0 C2.31 0 4.62 0 7 0 C7.33 1.65 7.66 3.3 8 5 C7.34 5 6.68 5 6 5 C6 4.34 6 3.68 6 3 C5.01 3.495 5.01 3.495 4 4 C2.00039988 4.039992 -0.00047242 4.04346799 -2 4 C-1.34 2.68 -0.68 1.36 0 0 Z " fill="#0E0F13" transform="translate(429,355)"/>
<path d="M0 0 C0.99 0.66 1.98 1.32 3 2 C2.835 2.928125 2.67 3.85625 2.5 4.8125 C1.92251612 7.95621353 1.92251612 7.95621353 2 11 C1.01 12.485 1.01 12.485 0 14 C-0.33 10.7 -0.66 7.4 -1 4 C-1.99 3.67 -2.98 3.34 -4 3 C-2 1 -2 1 0 0 Z " fill="#2A2E39" transform="translate(574,240)"/>
<path d="M0 0 C2 2 2 2 2 6 C5.26954202 5.43628586 6.82575883 4.50037734 9 2 C7.125 6.875 7.125 6.875 6 8 C3.32941149 8.14115161 0.67567762 8.04247107 -2 8 C-2 7.34 -2 6.68 -2 6 C-1.34 6 -0.68 6 0 6 C0 4.02 0 2.04 0 0 Z " fill="#272B35" transform="translate(431,200)"/>
<path d="M0 0 C0.99 0 1.98 0 3 0 C3.33 1.65 3.66 3.3 4 5 C3.01 5.33 2.02 5.66 1 6 C0.67 7.65 0.34 9.3 0 11 C-0.33 11 -0.66 11 -1 11 C-1.14285714 3.57142857 -1.14285714 3.57142857 0 0 Z " fill="#262B31" transform="translate(174,172)"/>
<path d="M0 0 C0.66 0.66 1.32 1.32 2 2 C1.625 4.125 1.625 4.125 1 6 C1.66 6 2.32 6 3 6 C2.67 6.66 2.34 7.32 2 8 C-0.31 7.34 -2.62 6.68 -5 6 C-4.67 5.01 -4.34 4.02 -4 3 C-3.01 3 -2.02 3 -1 3 C-0.67 2.01 -0.34 1.02 0 0 Z " fill="#252932" transform="translate(554,265)"/>
<path d="M0 0 C3.93846154 3.32307692 3.93846154 3.32307692 4.25 6.75 C4.1675 7.4925 4.085 8.235 4 9 C3.67 8.01 3.34 7.02 3 6 C1.68 6.33 0.36 6.66 -1 7 C-1.625 4.625 -1.625 4.625 -2 2 C-1.34 1.34 -0.68 0.68 0 0 Z " fill="#191B1E" transform="translate(465,336)"/>
<path d="M0 0 C2.97 0 5.94 0 9 0 C9.33 1.32 9.66 2.64 10 4 C8.68 4.33 7.36 4.66 6 5 C6 4.34 6 3.68 6 3 C5.38125 2.87625 4.7625 2.7525 4.125 2.625 C2 2 2 2 0 0 Z " fill="#E3E4E5" transform="translate(334,331)"/>
<path d="M0 0 C2.64 0 5.28 0 8 0 C8 1.98 8 3.96 8 6 C7.01 6.33 6.02 6.66 5 7 C4.01 6.34 3.02 5.68 2 5 C2 4.34 2 3.68 2 3 C3.65 2.34 5.3 1.68 7 1 C4.69 1 2.38 1 0 1 C0 0.67 0 0.34 0 0 Z " fill="#27282C" transform="translate(308,342)"/>
<path d="M0 0 C0 1.65 0 3.3 0 5 C-2.62113708 5 -4.50935112 4.68707555 -7 4 C-7 3.01 -7 2.02 -7 1 C-2.25 0 -2.25 0 0 0 Z " fill="#07080B" transform="translate(468,342)"/>
<path d="M0 0 C0.33 0 0.66 0 1 0 C1.20086443 3.71599191 1.1519437 4.77208445 -1 8 C-1.66 8 -2.32 8 -3 8 C-2.67 8.99 -2.34 9.98 -2 11 C-3.32 10.34 -4.64 9.68 -6 9 C-6 7 -6 7 -4.6875 5.375 C-3 4 -3 4 0 4 C0 2.68 0 1.36 0 0 Z " fill="#060608" transform="translate(306,337)"/>
<path d="M0 0 C0.94875 0.04125 1.8975 0.0825 2.875 0.125 C1.875 2.125 1.875 2.125 0.0625 2.9375 C-2.77698628 4.47893541 -4.22692934 6.54904696 -6.125 9.125 C-5.13392857 0.20535714 -5.13392857 0.20535714 0 0 Z " fill="#212225" transform="translate(432.125,335.875)"/>
<path d="M0 0 C0.9075 0.226875 1.815 0.45375 2.75 0.6875 C2.75 1.3475 2.75 2.0075 2.75 2.6875 C0.75 4.3125 0.75 4.3125 -1.25 5.6875 C-2.24 5.0275 -3.23 4.3675 -4.25 3.6875 C-5.24 3.3575 -6.23 3.0275 -7.25 2.6875 C-4.61280971 0.1517401 -3.74095095 -0.35970682 0 0 Z " fill="#1B1C20" transform="translate(315.25,329.3125)"/>
<path d="M0 0 C0.185625 0.9590625 0.185625 0.9590625 0.375 1.9375 C0.684375 2.9584375 0.684375 2.9584375 1 4 C1.66 4.33 2.32 4.66 3 5 C3.33 5.99 3.66 6.98 4 8 C2.35 8 0.7 8 -1 8 C-1.66 6.02 -2.32 4.04 -3 2 C-2.01 2 -1.02 2 0 2 C0 1.34 0 0.68 0 0 Z " fill="#111318" transform="translate(373,295)"/>
<path d="M0 0 C0.33 0.99 0.66 1.98 1 3 C1.66 3.33 2.32 3.66 3 4 C2.67 5.32 2.34 6.64 2 8 C0.68 8 -0.64 8 -2 8 C-2 7.34 -2 6.68 -2 6 C-2.66 5.67 -3.32 5.34 -4 5 C-2.68 3.35 -1.36 1.7 0 0 Z " fill="#2A2E39" transform="translate(485,216)"/>
<path d="M0 0 C2.0625 0.4375 2.0625 0.4375 4 1 C3.67 3.31 3.34 5.62 3 8 C2.01 8 1.02 8 0 8 C-0.38063221 5.6739143 -0.71269945 3.33944736 -1 1 C-0.67 0.67 -0.34 0.34 0 0 Z " fill="#1F242A" transform="translate(170,192)"/>
<path d="M0 0 C2.475 0.495 2.475 0.495 5 1 C5.33 2.32 5.66 3.64 6 5 C4.02 5.99 4.02 5.99 2 7 C1.34 4.69 0.68 2.38 0 0 Z " fill="#21232A" transform="translate(357,190)"/>
<path d="M0 0 C1.98 0 3.96 0 6 0 C6.33 0.99 6.66 1.98 7 3 C6.01 3.99 5.02 4.98 4 6 C1 4 1 4 0.3125 1.875 C0.209375 1.25625 0.10625 0.6375 0 0 Z " fill="#2D313B" transform="translate(316,169)"/>
<path d="M0 0 C0.66 0 1.32 0 2 0 C2.12375 0.61875 2.2475 1.2375 2.375 1.875 C2.87197356 4.19120832 2.87197356 4.19120832 5 6 C4.01 6 3.02 6 2 6 C1.01 9.465 1.01 9.465 0 13 C-0.96661363 9.87819599 -0.98988909 7.47916205 -0.5625 4.25 C-0.46066406 3.45078125 -0.35882813 2.6515625 -0.25390625 1.828125 C-0.17011719 1.22484375 -0.08632813 0.6215625 0 0 Z " fill="#2E323E" transform="translate(438,162)"/>
<path d="M0 0 C0.66 0.33 1.32 0.66 2 1 C1.67 4.63 1.34 8.26 1 12 C0.34 12 -0.32 12 -1 12 C-1.02687279 10.18757948 -1.04633715 8.37504767 -1.0625 6.5625 C-1.07410156 5.55316406 -1.08570313 4.54382813 -1.09765625 3.50390625 C-1 1 -1 1 0 0 Z " fill="#22272D" transform="translate(174,148)"/>
<path d="M0 0 C0.33 0 0.66 0 1 0 C1.33 2.97 1.66 5.94 2 9 C1.34 8.67 0.68 8.34 0 8 C0 5.36 0 2.72 0 0 Z M0 9 C0.33 9.66 0.66 10.32 1 11 C1.99 11 2.98 11 4 11 C4 11.66 4 12.32 4 13 C2.35 13.33 0.7 13.66 -1 14 C-1.33 13.34 -1.66 12.68 -2 12 C-1.34 12 -0.68 12 0 12 C0 11.01 0 10.02 0 9 Z " fill="#252A32" transform="translate(463,224)"/>
<path d="M0 0 C0.99 0.99 1.98 1.98 3 3 C2.34 4.65 1.68 6.3 1 8 C0.01 7.67 -0.98 7.34 -2 7 C-1.125 1.125 -1.125 1.125 0 0 Z " fill="#121317" transform="translate(373,227)"/>
<path d="M0 0 C0.99 0 1.98 0 3 0 C2.67 2.31 2.34 4.62 2 7 C0.68 6.67 -0.64 6.34 -2 6 C-1.125 1.125 -1.125 1.125 0 0 Z " fill="#343843" transform="translate(502,200)"/>
<path d="M0 0 C1.32 0 2.64 0 4 0 C4 0.66 4 1.32 4 2 C3.34 2 2.68 2 2 2 C2 3.65 2 5.3 2 7 C1.01 7.33 0.02 7.66 -1 8 C-1.04241723 5.66705225 -1.04092937 3.33297433 -1 1 C-0.67 0.67 -0.34 0.34 0 0 Z " fill="#1E2126" transform="translate(304,184)"/>
<path d="M0 0 C0.99 0 1.98 0 3 0 C3.6875 2.25 3.6875 2.25 4 5 C2.5625 7.3125 2.5625 7.3125 1 9 C0 8 0 8 -0.09765625 6.15234375 C-0.06510417 4.1015625 -0.03255208 2.05078125 0 0 Z " fill="#2A2E38" transform="translate(485,181)"/>
<path d="M0 0 C2.97 1.98 2.97 1.98 6 4 C5.67 4.99 5.34 5.98 5 7 C1 7 1 7 -1 6 C-0.67 4.02 -0.34 2.04 0 0 Z " fill="#0F1013" transform="translate(443,329)"/>
<path d="M0 0 C0.98120464 3.05263664 0.98120464 4.94736336 0 8 C-0.99 7.34 -1.98 6.68 -3 6 C-2.67 5.34 -2.34 4.68 -2 4 C-3.32 3.67 -4.64 3.34 -6 3 C-5 2 -5 2 -2.4375 1.9375 C-1.2309375 1.9684375 -1.2309375 1.9684375 0 2 C0 1.34 0 0.68 0 0 Z " fill="#252934" transform="translate(610,168)"/>
<path d="M0 0 C2.64 0 5.28 0 8 0 C7.67 2.31 7.34 4.62 7 7 C6.01 6.67 5.02 6.34 4 6 C4.33 4.68 4.66 3.36 5 2 C3.35 1.67 1.7 1.34 0 1 C0 0.67 0 0.34 0 0 Z " fill="#1F242A" transform="translate(448,90)"/>
<path d="M0 0 C2.35171131 0.59861742 4.6859378 1.26924352 7 2 C7.33 2.66 7.66 3.32 8 4 C5.36 4 2.72 4 0 4 C0 2.68 0 1.36 0 0 Z " fill="#232730" transform="translate(406,204)"/>
<path d="M0 0 C0.99 0.33 1.98 0.66 3 1 C3 3.31 3 5.62 3 8 C1.68 8.33 0.36 8.66 -1 9 C-0.67 6.03 -0.34 3.06 0 0 Z " fill="#343842" transform="translate(582,191)"/>
<path d="M0 0 C0.99 0.33 1.98 0.66 3 1 C2.34 2.98 1.68 4.96 1 7 C-0.32 7 -1.64 7 -3 7 C-1.125 1.125 -1.125 1.125 0 0 Z " fill="#21262C" transform="translate(271,112)"/>
<path d="M0 0 C0.66 0 1.32 0 2 0 C0.63016497 3.16115776 0.0109362 3.9927092 -3 6 C-5.33199388 6.07905064 -7.66832622 6.08798769 -10 6 C-10 5.67 -10 5.34 -10 5 C-8.865625 4.87625 -7.73125 4.7525 -6.5625 4.625 C-4.7990625 4.315625 -4.7990625 4.315625 -3 4 C-2.67 3.34 -2.34 2.68 -2 2 C-1.34 1.34 -0.68 0.68 0 0 Z " fill="#DFE0E1" transform="translate(470,349)"/>
<path d="M0 0 C1.4540625 0.0309375 1.4540625 0.0309375 2.9375 0.0625 C1.6175 1.3825 0.2975 2.7025 -1.0625 4.0625 C0.5875 4.0625 2.2375 4.0625 3.9375 4.0625 C3.9375 4.3925 3.9375 4.7225 3.9375 5.0625 C1.6275 5.0625 -0.6825 5.0625 -3.0625 5.0625 C-3.625 3.125 -3.625 3.125 -4.0625 1.0625 C-3.0625 0.0625 -3.0625 0.0625 0 0 Z " fill="#DCDDDE" transform="translate(432.0625,349.9375)"/>
<path d="M0 0 C0.33 0 0.66 0 1 0 C1.06058594 0.68707031 1.12117188 1.37414062 1.18359375 2.08203125 C1.26738281 2.98308594 1.35117187 3.88414062 1.4375 4.8125 C1.51871094 5.70582031 1.59992188 6.59914063 1.68359375 7.51953125 C1.93489767 10.12743559 1.93489767 10.12743559 3 13 C2.34 13 1.68 13 1 13 C0.67 13.66 0.34 14.32 0 15 C-1.09651823 11.58860997 -0.94215473 8.79344419 -0.5625 5.25 C-0.46066406 4.26515625 -0.35882813 3.2803125 -0.25390625 2.265625 C-0.17011719 1.51796875 -0.08632813 0.7703125 0 0 Z " fill="#0D0E11" transform="translate(291,334)"/>
<path d="M0 0 C2.64 0.66 5.28 1.32 8 2 C6.125 3.0625 6.125 3.0625 4 4 C3.34 3.67 2.68 3.34 2 3 C1.67 3.99 1.34 4.98 1 6 C0.34 5.67 -0.32 5.34 -1 5 C-0.67 3.35 -0.34 1.7 0 0 Z " fill="#2B2F3A" transform="translate(511,230)"/>
<path d="M0 0 C0.66 0.66 1.32 1.32 2 2 C4.06874034 2.6425235 4.06874034 2.6425235 6 3 C5.34 4.32 4.68 5.64 4 7 C3.01 7 2.02 7 1 7 C0.67 4.69 0.34 2.38 0 0 Z " fill="#212225" transform="translate(331,340)"/>
<path d="M0 0 C1.32 0.66 2.64 1.32 4 2 C3.01 3.485 3.01 3.485 2 5 C1.34 5 0.68 5 0 5 C-0.33 5.99 -0.66 6.98 -1 8 C-1.04241723 5.66705225 -1.04092937 3.33297433 -1 1 C-0.67 0.67 -0.34 0.34 0 0 Z " fill="#2C3039" transform="translate(640,248)"/>
<path d="M0 0 C0.33 0 0.66 0 1 0 C1.33 3.3 1.66 6.6 2 10 C1.34 10 0.68 10 0 10 C-2 7 -2 7 -3 4 C-2.01 3.67 -1.02 3.34 0 3 C0 2.01 0 1.02 0 0 Z " fill="#0D0E12" transform="translate(441,227)"/>
<path d="M0 0 C0.66 0 1.32 0 2 0 C3.60080151 4.00200378 2.29279692 7.04556236 1 11 C0.34 10.67 -0.32 10.34 -1 10 C-0.67 6.7 -0.34 3.4 0 0 Z " fill="#2D313C" transform="translate(578,192)"/>
<path d="M0 0 C0.99 0.33 1.98 0.66 3 1 C3.33 3.31 3.66 5.62 4 8 C3.01 7.67 2.02 7.34 1 7 C0.67 4.69 0.34 2.38 0 0 Z " fill="#191B21" transform="translate(381,261)"/>
<path d="M0 0 C0.66 0.33 1.32 0.66 2 1 C2.73075648 3.3140622 3.40138258 5.64828869 4 8 C3.01 8 2.02 8 1 8 C1 7.01 1 6.02 1 5 C0.34 5 -0.32 5 -1 5 C-0.67 3.35 -0.34 1.7 0 0 Z " fill="#181B20" transform="translate(380,252)"/>
<path d="M0 0 C0.99 0.33 1.98 0.66 3 1 C3 2.98 3 4.96 3 7 C2.01 7 1.02 7 0 7 C0 4.69 0 2.38 0 0 Z " fill="#1E232A" transform="translate(455,121)"/>
<path d="M0 0 C0.66 0 1.32 0 2 0 C2 0.99 2 1.98 2 3 C3.45833358 4.62514468 3.45833358 4.62514468 5 6 C5 6.33 5 6.66 5 7 C3.35 7 1.7 7 0 7 C0 4.69 0 2.38 0 0 Z " fill="#23282E" transform="translate(414,105)"/>
<path d="M0 0 C0.33 0.66 0.66 1.32 1 2 C1.66 2 2.32 2 3 2 C3 2.66 3 3.32 3 4 C1.35 4.66 -0.3 5.32 -2 6 C-2 5.01 -2 4.02 -2 3 C-2.66 3 -3.32 3 -4 3 C-4 2.34 -4 1.68 -4 1 C-2.68 1.33 -1.36 1.66 0 2 C0 1.34 0 0.68 0 0 Z " fill="#0B0C0F" transform="translate(419,333)"/>
<path d="M0 0 C2.69082872 0.17635452 5.32851446 0.61835921 8 1 C5.08235 2.9451 3.37462715 3.45276317 0 4 C-0.33 3.01 -0.66 2.02 -1 1 C-0.67 0.67 -0.34 0.34 0 0 Z " fill="#121418" transform="translate(426,328)"/>
<path d="M0 0 C0.66 0.99 1.32 1.98 2 3 C2.66 2.67 3.32 2.34 4 2 C4 3.32 4 4.64 4 6 C2.35 6 0.7 6 -1 6 C-0.67 4.02 -0.34 2.04 0 0 Z " fill="#292D37" transform="translate(423,202)"/>
<path d="M0 0 C0.99 0 1.98 0 3 0 C3.33 0.99 3.66 1.98 4 3 C2.68 4.32 1.36 5.64 0 7 C-1.125 2.25 -1.125 2.25 0 0 Z " fill="#2D313C" transform="translate(357,174)"/>
<path d="M0 0 C0.99 0.33 1.98 0.66 3 1 C2.67 1.99 2.34 2.98 2 4 C1.65772583 5.33106622 1.32248257 6.66400079 1 8 C0.34 7.67 -0.32 7.34 -1 7 C-1.04254356 5.00045254 -1.04080783 2.99958364 -1 1 C-0.67 0.67 -0.34 0.34 0 0 Z " fill="#1F242A" transform="translate(217,128)"/>
<path d="M0 0 C0.99 0.33 1.98 0.66 3 1 C2.67 2.65 2.34 4.3 2 6 C1.01 5.01 0.02 4.02 -1 3 C-0.67 2.01 -0.34 1.02 0 0 Z " fill="#21262C" transform="translate(299,110)"/>
<path d="M0 0 C2.475 0.495 2.475 0.495 5 1 C5 2.32 5 3.64 5 5 C3.68 5 2.36 5 1 5 C0.67 3.35 0.34 1.7 0 0 Z " fill="#0E0F13" transform="translate(343,354)"/>
<path d="M0 0 C0.66 0.33 1.32 0.66 2 1 C1.67 2.65 1.34 4.3 1 6 C-0.65 5.67 -2.3 5.34 -4 5 C-3 2 -3 2 0 0 Z " fill="#101114" transform="translate(432,337)"/>
<path d="M0 0 C1.98 0.99 1.98 0.99 4 2 C4 2.99 4 3.98 4 5 C3.34 5 2.68 5 2 5 C1.34 6.32 0.68 7.64 0 9 C0 6.03 0 3.06 0 0 Z " fill="#28292D" transform="translate(474,337)"/>
<path d="M0 0 C0.66 0 1.32 0 2 0 C4 3 4 3 4 7 C3.01 6.67 2.02 6.34 1 6 C0.67 4.02 0.34 2.04 0 0 Z " fill="#262A32" transform="translate(355,181)"/>
<path d="M0 0 C0.99 0 1.98 0 3 0 C2.4140625 6.15234375 2.4140625 6.15234375 2 8 C1.01 8.495 1.01 8.495 0 9 C0 6.03 0 3.06 0 0 Z " fill="#303440" transform="translate(500,154)"/>
<path d="M0 0 C0.66 0.33 1.32 0.66 2 1 C2 2.98 2 4.96 2 7 C1.01 7.33 0.02 7.66 -1 8 C-0.67 5.36 -0.34 2.72 0 0 Z " fill="#090A0D" transform="translate(475,341)"/>
<path d="M0 0 C1.32 0.33 2.64 0.66 4 1 C4 2.98 4 4.96 4 7 C2 5.75 2 5.75 0 4 C0 2.68 0 1.36 0 0 Z " fill="#111217" transform="translate(346,330)"/>
<path d="M0 0 C0.66 0.33 1.32 0.66 2 1 C2.125 3.875 2.125 3.875 2 7 C1.34 7.66 0.68 8.32 0 9 C-0.66 8.67 -1.32 8.34 -2 8 C-1.67 7.05125 -1.34 6.1025 -1 5.125 C0.10159191 2.22937548 0.10159191 2.22937548 0 0 Z " fill="#232730" transform="translate(590,264)"/>
<path d="M0 0 C0.99 0 1.98 0 3 0 C3 1.65 3 3.3 3 5 C1.35 5 -0.3 5 -2 5 C-1.34 3.35 -0.68 1.7 0 0 Z " fill="#22262F" transform="translate(630,259)"/>
<path d="M0 0 C0.99 0 1.98 0 3 0 C3 0.66 3 1.32 3 2 C4.32 2.33 5.64 2.66 7 3 C6 4 6 4 2.9375 4.0625 C1.4834375 4.0315625 1.4834375 4.0315625 0 4 C0 2.68 0 1.36 0 0 Z " fill="#24292F" transform="translate(656,233)"/>
<path d="M0 0 C0.33 0 0.66 0 1 0 C1 2.64 1 5.28 1 8 C0.01 7.67 -0.98 7.34 -2 7 C-2.125 4.625 -2.125 4.625 -2 2 C-1.34 1.34 -0.68 0.68 0 0 Z " fill="#2B2F3B" transform="translate(590,224)"/>
<path d="M0 0 C0.33 0 0.66 0 1 0 C1.12375 1.134375 1.2475 2.26875 1.375 3.4375 C1.58125 4.613125 1.7875 5.78875 2 7 C2.66 7.33 3.32 7.66 4 8 C4 8.66 4 9.32 4 10 C2.68 10 1.36 10 0 10 C0 6.7 0 3.4 0 0 Z " fill="#1F232B" transform="translate(354,153)"/>
</svg>
